<svg xmlns="http://www.w3.org/2000/svg" viewBox="0 0 1024 768" width="1024" height="768">
  <rect width="1024" height="768" fill="#2D5F4D"/>
  <g fill="#E8F7EE">
    <path d="M180,200 L320,560 L460,200 L520,200 L520,560 L460,560 L460,280 L340,560 L300,560 L180,280 L180,560 L120,560 L120,200 Z"/>
    <path d="M620,200 Q780,200 780,320 Q780,380 740,420 Q800,460 800,540 Q800,560 780,560 L560,560 L560,200 Z M620,380 Q700,380 700,320 Q700,260 620,260 L620,380 Z M620,500 L740,500 Q760,500 760,480 Q760,420 700,420 L620,420 Z"/>
  </g>
</svg>
